<svg width="53" height="53" viewBox="0 0 53 53" fill="none" xmlns="http://www.w3.org/2000/svg">
<circle cx="26.495" cy="26.495" r="26.495" fill="url(#paint0_linear_32_959)"/>
<circle cx="26.2007" cy="26.2006" r="19.1353" fill="url(#paint1_linear_32_959)"/>
<path d="M21.9513 26.5143C21.0013 26.5143 20.1863 26.3143 19.5063 25.9143C18.8263 25.5043 18.3063 24.9143 17.9463 24.1443C17.5863 23.3743 17.4063 22.4243 17.4063 21.2943C17.4063 20.0943 17.6213 19.0793 18.0513 18.2493C18.4913 17.4193 19.0963 16.7893 19.8663 16.3593C20.6463 15.9293 21.5413 15.7143 22.5513 15.7143C23.0813 15.7143 23.5863 15.7693 24.0663 15.8793C24.5563 15.9893 24.9713 16.1593 25.3113 16.3893L24.5913 17.8593C24.3013 17.6693 23.9863 17.5393 23.6463 17.4693C23.3163 17.3893 22.9663 17.3493 22.5963 17.3493C21.6063 17.3493 20.8213 17.6543 20.2413 18.2643C19.6613 18.8743 19.3713 19.7743 19.3713 20.9643C19.3713 21.1543 19.3763 21.3793 19.3863 21.6393C19.3963 21.8893 19.4313 22.1443 19.4913 22.4043L18.8913 21.7443C19.0713 21.3343 19.3163 20.9943 19.6263 20.7243C19.9463 20.4443 20.3213 20.2343 20.7513 20.0943C21.1913 19.9543 21.6663 19.8843 22.1763 19.8843C22.8663 19.8843 23.4813 20.0193 24.0213 20.2893C24.5613 20.5493 24.9913 20.9243 25.3113 21.4143C25.6313 21.8943 25.7913 22.4593 25.7913 23.1093C25.7913 23.7993 25.6213 24.3993 25.2813 24.9093C24.9413 25.4193 24.4813 25.8143 23.9013 26.0943C23.3213 26.3743 22.6713 26.5143 21.9513 26.5143ZM21.8463 24.9843C22.2463 24.9843 22.6013 24.9143 22.9113 24.7743C23.2213 24.6243 23.4613 24.4143 23.6313 24.1443C23.8113 23.8743 23.9013 23.5593 23.9013 23.1993C23.9013 22.6493 23.7113 22.2143 23.3313 21.8943C22.9513 21.5743 22.4413 21.4143 21.8013 21.4143C21.3813 21.4143 21.0113 21.4943 20.6913 21.6543C20.3813 21.8043 20.1313 22.0143 19.9413 22.2843C19.7613 22.5543 19.6713 22.8643 19.6713 23.2143C19.6713 23.5343 19.7563 23.8293 19.9263 24.0993C20.0963 24.3693 20.3413 24.5843 20.6613 24.7443C20.9913 24.9043 21.3863 24.9843 21.8463 24.9843ZM31.1906 26.5143C30.3606 26.5143 29.6106 26.3043 28.9406 25.8843C28.2806 25.4643 27.7606 24.8543 27.3806 24.0543C27.0006 23.2443 26.8106 22.2643 26.8106 21.1143C26.8106 19.9643 27.0006 18.9893 27.3806 18.1893C27.7606 17.3793 28.2806 16.7643 28.9406 16.3443C29.6106 15.9243 30.3606 15.7143 31.1906 15.7143C32.0306 15.7143 32.7806 15.9243 33.4406 16.3443C34.1006 16.7643 34.6206 17.3793 35.0006 18.1893C35.3906 18.9893 35.5856 19.9643 35.5856 21.1143C35.5856 22.2643 35.3906 23.2443 35.0006 24.0543C34.6206 24.8543 34.1006 25.4643 33.4406 25.8843C32.7806 26.3043 32.0306 26.5143 31.1906 26.5143ZM31.1906 24.8193C31.6806 24.8193 32.1056 24.6893 32.4656 24.4293C32.8256 24.1593 33.1056 23.7493 33.3056 23.1993C33.5156 22.6493 33.6206 21.9543 33.6206 21.1143C33.6206 20.2643 33.5156 19.5693 33.3056 19.0293C33.1056 18.4793 32.8256 18.0743 32.4656 17.8143C32.1056 17.5443 31.6806 17.4093 31.1906 17.4093C30.7206 17.4093 30.3006 17.5443 29.9306 17.8143C29.5706 18.0743 29.2856 18.4793 29.0756 19.0293C28.8756 19.5693 28.7756 20.2643 28.7756 21.1143C28.7756 21.9543 28.8756 22.6493 29.0756 23.1993C29.2856 23.7493 29.5706 24.1593 29.9306 24.4293C30.3006 24.6893 30.7206 24.8193 31.1906 24.8193Z" fill="black"/>
<defs>
<linearGradient id="paint0_linear_32_959" x1="26.495" y1="0" x2="26.495" y2="52.99" gradientUnits="userSpaceOnUse">
<stop stop-color="#B00000"/>
<stop offset="1" stop-color="#7D0000"/>
</linearGradient>
<linearGradient id="paint1_linear_32_959" x1="26.2007" y1="7.06534" x2="26.2007" y2="45.3359" gradientUnits="userSpaceOnUse">
<stop stop-color="#E1E1E1"/>
<stop offset="1" stop-color="#A3A3A3"/>
</linearGradient>
</defs>
</svg>
