<svg width="58" height="58" viewBox="0 0 58 58" fill="none" xmlns="http://www.w3.org/2000/svg">
<path d="M10.6117 46.6409C10.2456 46.6409 9.87436 46.6002 9.49805 46.5188C9.12173 46.4375 8.79118 46.318 8.5064 46.1603L9.11664 44.833C9.34548 44.9653 9.5845 45.0644 9.83368 45.1305C10.0829 45.1916 10.3193 45.2221 10.5431 45.2221C10.7465 45.2221 10.9143 45.1865 11.0465 45.1153C11.1788 45.0441 11.2449 44.9398 11.2449 44.8025C11.2449 44.7262 11.222 44.6601 11.1762 44.6042C11.1304 44.5432 11.0491 44.4974 10.9321 44.4669C10.8202 44.4364 10.655 44.4211 10.4363 44.4211H8.8878L9.15478 41.1792H12.7018V42.537H9.78791L10.6956 41.7666L10.5355 43.8338L9.62772 43.0633H10.8711C11.4 43.0633 11.8221 43.1396 12.1373 43.2922C12.4577 43.4447 12.6891 43.6507 12.8315 43.91C12.979 44.1643 13.0527 44.4491 13.0527 44.7644C13.0527 45.0797 12.9663 45.3823 12.7934 45.6721C12.6255 45.9569 12.3611 46.1908 12 46.3739C11.6441 46.5519 11.1813 46.6409 10.6117 46.6409ZM15.8304 46.6409C15.3574 46.6409 14.9379 46.5315 14.5718 46.3129C14.2107 46.0942 13.9259 45.7764 13.7174 45.3594C13.514 44.9424 13.4123 44.4389 13.4123 43.849C13.4123 43.2591 13.514 42.7557 13.7174 42.3387C13.9259 41.9217 14.2107 41.6038 14.5718 41.3852C14.9379 41.1665 15.3574 41.0572 15.8304 41.0572C16.3033 41.0572 16.7203 41.1665 17.0814 41.3852C17.4475 41.6038 17.7323 41.9217 17.9357 42.3387C18.1442 42.7557 18.2485 43.2591 18.2485 43.849C18.2485 44.4389 18.1442 44.9424 17.9357 45.3594C17.7323 45.7764 17.4475 46.0942 17.0814 46.3129C16.7203 46.5315 16.3033 46.6409 15.8304 46.6409ZM15.8304 45.1992C15.9473 45.1992 16.0516 45.1585 16.1431 45.0771C16.2347 44.9958 16.3059 44.8559 16.3567 44.6576C16.4127 44.4593 16.4406 44.1897 16.4406 43.849C16.4406 43.5032 16.4127 43.2337 16.3567 43.0404C16.3059 42.8421 16.2347 42.7023 16.1431 42.6209C16.0516 42.5395 15.9473 42.4989 15.8304 42.4989C15.7134 42.4989 15.6092 42.5395 15.5176 42.6209C15.4261 42.7023 15.3524 42.8421 15.2964 43.0404C15.2456 43.2337 15.2201 43.5032 15.2201 43.849C15.2201 44.1897 15.2456 44.4593 15.2964 44.6576C15.3524 44.8559 15.4261 44.9958 15.5176 45.0771C15.6092 45.1585 15.7134 45.1992 15.8304 45.1992ZM21.1119 46.6409C20.639 46.6409 20.2194 46.5315 19.8533 46.3129C19.4922 46.0942 19.2074 45.7764 18.9989 45.3594C18.7955 44.9424 18.6938 44.4389 18.6938 43.849C18.6938 43.2591 18.7955 42.7557 18.9989 42.3387C19.2074 41.9217 19.4922 41.6038 19.8533 41.3852C20.2194 41.1665 20.639 41.0572 21.1119 41.0572C21.5848 41.0572 22.0018 41.1665 22.3629 41.3852C22.729 41.6038 23.0138 41.9217 23.2172 42.3387C23.4257 42.7557 23.53 43.2591 23.53 43.849C23.53 44.4389 23.4257 44.9424 23.2172 45.3594C23.0138 45.7764 22.729 46.0942 22.3629 46.3129C22.0018 46.5315 21.5848 46.6409 21.1119 46.6409ZM21.1119 45.1992C21.2289 45.1992 21.3331 45.1585 21.4246 45.0771C21.5162 44.9958 21.5874 44.8559 21.6382 44.6576C21.6942 44.4593 21.7221 44.1897 21.7221 43.849C21.7221 43.5032 21.6942 43.2337 21.6382 43.0404C21.5874 42.8421 21.5162 42.7023 21.4246 42.6209C21.3331 42.5395 21.2289 42.4989 21.1119 42.4989C20.9949 42.4989 20.8907 42.5395 20.7991 42.6209C20.7076 42.7023 20.6339 42.8421 20.5779 43.0404C20.5271 43.2337 20.5017 43.5032 20.5017 43.849C20.5017 44.1897 20.5271 44.4593 20.5779 44.6576C20.6339 44.8559 20.7076 44.9958 20.7991 45.0771C20.8907 45.1585 20.9949 45.1992 21.1119 45.1992ZM31.9451 42.27C32.2604 42.27 32.5427 42.3361 32.7918 42.4683C33.0461 42.5955 33.2444 42.7964 33.3868 43.071C33.5343 43.3456 33.608 43.7015 33.608 44.1389V46.5188H31.8841V44.4364C31.8841 44.177 31.8409 43.994 31.7544 43.8872C31.668 43.7753 31.5561 43.7193 31.4188 43.7193C31.3171 43.7193 31.2255 43.7448 31.1442 43.7956C31.0628 43.8465 30.9967 43.9278 30.9459 44.0397C30.9001 44.1465 30.8772 44.294 30.8772 44.4821V46.5188H29.1533V44.4364C29.1533 44.177 29.1126 43.994 29.0312 43.8872C28.9499 43.7753 28.8354 43.7193 28.688 43.7193C28.5862 43.7193 28.4947 43.7448 28.4133 43.7956C28.332 43.8465 28.2659 43.9278 28.215 44.0397C28.1693 44.1465 28.1464 44.294 28.1464 44.4821V46.5188H26.4224V42.3463H28.0625V43.5439L27.7268 43.2083C27.8845 42.893 28.0955 42.659 28.36 42.5065C28.6244 42.3488 28.9193 42.27 29.2448 42.27C29.6109 42.27 29.9339 42.3666 30.2136 42.5599C30.4983 42.748 30.689 43.0481 30.7857 43.46L30.2593 43.3761C30.4119 43.0303 30.6331 42.7608 30.923 42.5675C31.2179 42.3692 31.5586 42.27 31.9451 42.27Z" fill="white"/>
<path d="M25.4048 14.9611H34.7202V18.9122H25.4048V37.2609H21.4526V18.9122H12.7026V14.9611H21.4526V6.21008H25.4048V14.9611Z" fill="white" fill-opacity="0.2"/>
<path d="M45.087 16.4023C45.4605 16.6572 45.456 17.2095 45.0785 17.4582L35.2353 23.9431C34.7515 24.2618 34.1284 23.8201 34.2689 23.2581L35.8168 17.0665C35.8381 16.9812 35.8385 16.892 35.8179 16.8065L34.2607 10.3553C34.1241 9.78965 34.7563 9.35307 35.2369 9.68102L45.087 16.4023Z" fill="white"/>
<path d="M23.4292 37.2606V23.4096C23.4292 21.0964 23.4292 19.9398 23.8936 19.0626C24.2684 18.3547 24.8473 17.7759 25.5552 17.4011C26.4323 16.9366 27.5889 16.9366 29.9021 16.9366H36.1317" stroke="white" stroke-width="2.54268"/>
</svg>
