<svg width="30" height="30" viewBox="0 0 30 30" fill="none" xmlns="http://www.w3.org/2000/svg">
<path d="M16.25 6C11.25 6 11.25 24 16.25 24C21.25 24 27.4999 20.625 27.4999 15C27.4999 9.375 21.25 6 16.25 6ZM16.375 21.5C15.875 21 15 18.75 15 15C15 11.25 15.875 9 16.375 8.49999C20 8.625 25 10.875 25 15C25 19.125 20 21.375 16.375 21.5ZM2.5 6.24999H11.875C11.625 6.75 11.25 7.24999 11.125 7.99999C11 8.25 11 8.49999 10.875 8.74998H2.5V6.24999ZM10 13.75H2.5V11.25H10.25C10.125 12 10.125 12.875 10 13.75ZM10.875 21.25C11.125 22.2501 11.5 23.0001 12 23.7501H2.62501V21.25H10.875ZM10.25 18.75H2.5V16.25H10C10.125 17.125 10.125 18 10.25 18.75Z" fill="#2BD150"/>
</svg>
