<svg width="30" height="30" viewBox="0 0 30 30" fill="none" xmlns="http://www.w3.org/2000/svg">
<path d="M16.25 6C11.25 6 11.25 24 16.25 24C21.25 24 27.5001 20.625 27.5001 15C27.5001 9.375 21.25 6 16.25 6ZM16.375 21.5C15.875 21 15 18.75 15 15C15 11.25 15.875 9 16.375 8.49999C20 8.625 24.9999 10.875 24.9999 15C24.9999 19.125 19.875 21.375 16.375 21.5ZM9.99999 13.125C9.99999 13.75 9.875 14.375 9.875 15V15.75L2.99999 17.5L2.375 15.125L9.99999 13.125ZM2.49999 8.74998L11.75 6.37498C11.5 6.74998 11.25 7.24999 11.125 7.875C11 8.25 10.875 8.74999 10.75 9.24999L3.125 11.125L2.49999 8.74998ZM10.25 19.375C10.375 20.25 10.625 21.125 10.875 21.75L2.99999 23.7501L2.375 21.375L10.25 19.375Z" fill="#309501"/>
</svg>
