<svg width="30" height="30" viewBox="0 0 30 30" fill="none" xmlns="http://www.w3.org/2000/svg">
<path d="M15 3.75C8.75001 3.75 3.75 8.75001 3.75 15C3.75 21.25 8.75001 26.25 15 26.25C21.25 26.25 26.25 21.25 26.25 15C26.25 8.75001 21.25 3.75 15 3.75ZM15 23.7501C10.125 23.7501 6.24999 19.875 6.24999 15C6.24999 10.125 10.125 6.24999 15 6.24999C19.875 6.24999 23.7501 10.125 23.7501 15C23.7501 19.875 19.875 23.7501 15 23.7501ZM25.6251 25.6251C28.3749 22.875 30 19.125 30 15C30 10.875 28.3749 7.125 25.6251 4.37499L24.2499 5.75001C26.625 8.12499 28.125 11.375 28.125 15C28.125 18.625 26.625 21.875 24.2499 24.2499L25.6251 25.6251ZM5.75001 24.2499C3.375 21.875 1.875 18.625 1.875 15C1.875 11.375 3.375 8.12499 5.75001 5.75001L4.37499 4.37499C1.625 7.125 0 10.875 0 15C0 19.125 1.625 22.875 4.37499 25.6251L5.75001 24.2499ZM11.875 8.75001V21.25H14.375V16.25H16.875C17.538 16.25 18.1739 15.9866 18.6428 15.5178C19.1116 15.0489 19.375 14.413 19.375 13.75V11.25C19.375 10.587 19.1116 9.95107 18.6428 9.48223C18.1739 9.01339 17.538 8.75001 16.875 8.75001H11.875ZM14.375 11.25H16.875V13.75H14.375V11.25Z" fill="#FFC226"/>
</svg>
