<svg width="30" height="30" viewBox="0 0 30 30" fill="none" xmlns="http://www.w3.org/2000/svg">
<path d="M15.0001 2.50001C15.6631 2.50001 16.299 2.7634 16.7679 3.23224C17.2367 3.70109 17.5001 4.33697 17.5001 5.00002C17.5001 6.38752 16.3876 7.5 15.0001 7.5C14.3371 7.5 13.7012 7.23661 13.2323 6.76777C12.7635 6.29892 12.5001 5.66304 12.5001 5.00002C12.5001 4.33697 12.7635 3.70109 13.2323 3.23224C13.7012 2.7634 14.3371 2.50001 15.0001 2.50001ZM15.4876 18.4875C17.2632 18.4806 19.0375 18.585 20.8001 18.8C20.8751 15.4 20.5751 12.4 20.0001 11.25C19.8376 10.9125 19.6126 10.625 19.3751 10.375L9.28759 19.025C10.9876 18.75 13.1251 18.4875 15.4876 18.4875ZM9.32509 21.25C9.48758 23.425 9.81259 25.6249 10.3376 27.4999H12.9251C12.5626 26.4 12.3001 25.1126 12.1001 23.7499C12.1001 23.7499 15.0001 23.2 17.9001 23.7499C17.7001 25.1126 17.4376 26.4 17.0751 27.4999H19.6626C20.2126 25.5626 20.5376 23.2625 20.7001 20.9875C18.9705 20.7784 17.2298 20.674 15.4876 20.675C13.0751 20.675 10.9751 20.9375 9.32509 21.25ZM15.0001 8.75002C15.0001 8.75002 11.2501 8.75001 10.0001 11.25C9.5751 12.1 9.30008 13.9375 9.21259 16.2L17.4001 9.17501C16.1626 8.75002 15.0001 8.75002 15.0001 8.75002ZM23.2126 7.0875L21.7876 5.42501L17.4001 9.1875C18.0876 9.42502 18.8126 9.80001 19.3751 10.375L23.2126 7.0875ZM25.8377 19.7875C25.7252 19.75 23.9252 19.1625 20.8001 18.8C20.7876 19.5125 20.7501 20.25 20.7001 20.9875C23.5127 21.3375 25.1252 21.875 25.15 21.875L25.8377 19.7875ZM9.21259 16.2L4.2876 20.425L5.40008 22.275C5.42509 22.2625 6.8751 21.7 9.32509 21.25C9.18758 19.4875 9.15008 17.75 9.21259 16.2Z" fill="#C60000"/>
</svg>
