<svg width="68" height="240" viewBox="0 0 68 240" fill="none" xmlns="http://www.w3.org/2000/svg">
<path d="M55.3279 237.488C53.3829 239.634 50.0613 239.802 47.9838 237.786C32.5591 222.817 20.335 204.841 12.0793 184.948C3.15293 163.439 -0.913279 140.22 0.17163 116.954C1.25654 93.6885 7.46574 70.9502 18.3549 50.3667C28.4253 31.3309 42.2682 14.5733 59.0174 1.1082C61.2753 -0.706959 64.5677 -0.230902 66.3043 2.08705V2.08705C68.0405 4.40456 67.5636 7.6853 65.3105 9.50542C49.7944 22.0394 36.9651 37.6066 27.6174 55.2763C17.4511 74.4933 11.6541 95.7221 10.6412 117.444C9.62833 139.165 13.4246 160.842 21.7584 180.923C29.4219 199.389 40.748 216.087 55.0322 230.014C57.1041 232.034 57.272 235.342 55.3279 237.488V237.488Z" fill="#D9D9D9"/>
</svg>
