<svg width="429" height="393" viewBox="0 0 429 393" fill="none" xmlns="http://www.w3.org/2000/svg">
<g clip-path="url(#clip0_95_328)">
<path d="M293.492 300.257V292.217L293.876 292.625H291.512V291.857H294.356V300.257H293.492ZM299.808 300.329C299.064 300.329 298.436 300.165 297.924 299.837C297.412 299.501 297.024 299.021 296.76 298.397C296.496 297.765 296.364 297.009 296.364 296.129C296.364 295.177 296.524 294.381 296.844 293.741C297.172 293.093 297.624 292.605 298.2 292.277C298.776 291.949 299.444 291.785 300.204 291.785C300.58 291.785 300.94 291.821 301.284 291.893C301.628 291.965 301.932 292.081 302.196 292.241L301.848 292.937C301.632 292.793 301.384 292.693 301.104 292.637C300.824 292.573 300.528 292.541 300.216 292.541C299.312 292.541 298.588 292.829 298.044 293.405C297.508 293.981 297.24 294.841 297.24 295.985C297.24 296.161 297.248 296.381 297.264 296.645C297.288 296.901 297.336 297.157 297.408 297.413L297.108 297.185C297.196 296.769 297.368 296.417 297.624 296.129C297.88 295.833 298.2 295.609 298.584 295.457C298.968 295.305 299.388 295.229 299.844 295.229C300.404 295.229 300.896 295.333 301.32 295.541C301.744 295.749 302.076 296.041 302.316 296.417C302.556 296.793 302.676 297.237 302.676 297.749C302.676 298.269 302.552 298.725 302.304 299.117C302.056 299.501 301.712 299.801 301.272 300.017C300.84 300.225 300.352 300.329 299.808 300.329ZM299.772 299.597C300.172 299.597 300.524 299.525 300.828 299.381C301.14 299.229 301.384 299.017 301.56 298.745C301.736 298.465 301.824 298.141 301.824 297.773C301.824 297.221 301.632 296.781 301.248 296.453C300.872 296.125 300.36 295.961 299.712 295.961C299.28 295.961 298.904 296.041 298.584 296.201C298.264 296.361 298.012 296.581 297.828 296.861C297.644 297.133 297.552 297.445 297.552 297.797C297.552 298.101 297.636 298.393 297.804 298.673C297.972 298.945 298.22 299.169 298.548 299.345C298.884 299.513 299.292 299.597 299.772 299.597ZM307.024 300.329C306.376 300.329 305.8 300.161 305.296 299.825C304.792 299.481 304.396 298.993 304.108 298.361C303.82 297.721 303.676 296.953 303.676 296.057C303.676 295.161 303.82 294.397 304.108 293.765C304.396 293.125 304.792 292.637 305.296 292.301C305.8 291.957 306.376 291.785 307.024 291.785C307.672 291.785 308.248 291.957 308.752 292.301C309.256 292.637 309.652 293.125 309.94 293.765C310.236 294.397 310.384 295.161 310.384 296.057C310.384 296.953 310.236 297.721 309.94 298.361C309.652 298.993 309.256 299.481 308.752 299.825C308.248 300.161 307.672 300.329 307.024 300.329ZM307.024 299.537C307.52 299.537 307.952 299.405 308.32 299.141C308.688 298.869 308.976 298.477 309.184 297.965C309.392 297.445 309.496 296.809 309.496 296.057C309.496 295.305 309.392 294.673 309.184 294.161C308.976 293.641 308.688 293.249 308.32 292.985C307.952 292.713 307.52 292.577 307.024 292.577C306.544 292.577 306.116 292.713 305.74 292.985C305.364 293.249 305.072 293.641 304.864 294.161C304.656 294.673 304.552 295.305 304.552 296.057C304.552 296.809 304.656 297.445 304.864 297.965C305.072 298.477 305.364 298.869 305.74 299.141C306.116 299.405 306.544 299.537 307.024 299.537Z" fill="white"/>
<path d="M325.826 232.143V224.103L326.21 224.511H323.846V223.743H326.69V232.143H325.826ZM328.553 229.935V229.311L333.005 223.743H333.965L329.549 229.311L329.081 229.167H335.837V229.935H328.553ZM333.293 232.143V229.935L333.317 229.167V227.223H334.157V232.143H333.293ZM339.979 232.215C339.331 232.215 338.755 232.047 338.251 231.711C337.747 231.367 337.351 230.879 337.063 230.247C336.775 229.607 336.631 228.839 336.631 227.943C336.631 227.047 336.775 226.283 337.063 225.651C337.351 225.011 337.747 224.523 338.251 224.187C338.755 223.843 339.331 223.671 339.979 223.671C340.627 223.671 341.203 223.843 341.707 224.187C342.211 224.523 342.607 225.011 342.895 225.651C343.191 226.283 343.339 227.047 343.339 227.943C343.339 228.839 343.191 229.607 342.895 230.247C342.607 230.879 342.211 231.367 341.707 231.711C341.203 232.047 340.627 232.215 339.979 232.215ZM339.979 231.423C340.475 231.423 340.907 231.291 341.275 231.027C341.643 230.755 341.931 230.363 342.139 229.851C342.347 229.331 342.451 228.695 342.451 227.943C342.451 227.191 342.347 226.559 342.139 226.047C341.931 225.527 341.643 225.135 341.275 224.871C340.907 224.599 340.475 224.463 339.979 224.463C339.499 224.463 339.071 224.599 338.695 224.871C338.319 225.135 338.027 225.527 337.819 226.047C337.611 226.559 337.507 227.191 337.507 227.943C337.507 228.695 337.611 229.331 337.819 229.851C338.027 230.363 338.319 230.755 338.695 231.027C339.071 231.291 339.499 231.423 339.979 231.423Z" fill="white"/>
<path d="M317.803 156.857V148.817L318.187 149.225H315.823V148.457H318.667V156.857H317.803ZM320.519 156.857V156.245L324.011 152.825C324.331 152.513 324.571 152.241 324.731 152.009C324.891 151.769 324.999 151.545 325.055 151.337C325.111 151.129 325.139 150.933 325.139 150.749C325.139 150.261 324.971 149.877 324.635 149.597C324.307 149.317 323.819 149.177 323.171 149.177C322.675 149.177 322.235 149.253 321.851 149.405C321.475 149.557 321.151 149.793 320.879 150.113L320.267 149.585C320.595 149.201 321.015 148.905 321.527 148.697C322.039 148.489 322.611 148.385 323.243 148.385C323.811 148.385 324.303 148.477 324.719 148.661C325.135 148.837 325.455 149.097 325.679 149.441C325.911 149.785 326.027 150.189 326.027 150.653C326.027 150.925 325.987 151.193 325.907 151.457C325.835 151.721 325.699 152.001 325.499 152.297C325.307 152.585 325.023 152.913 324.647 153.281L321.443 156.425L321.203 156.089H326.411V156.857H320.519ZM330.82 156.929C330.172 156.929 329.596 156.761 329.092 156.425C328.588 156.081 328.192 155.593 327.904 154.961C327.616 154.321 327.472 153.553 327.472 152.657C327.472 151.761 327.616 150.997 327.904 150.365C328.192 149.725 328.588 149.237 329.092 148.901C329.596 148.557 330.172 148.385 330.82 148.385C331.468 148.385 332.044 148.557 332.548 148.901C333.052 149.237 333.448 149.725 333.736 150.365C334.032 150.997 334.18 151.761 334.18 152.657C334.18 153.553 334.032 154.321 333.736 154.961C333.448 155.593 333.052 156.081 332.548 156.425C332.044 156.761 331.468 156.929 330.82 156.929ZM330.82 156.137C331.316 156.137 331.748 156.005 332.116 155.741C332.484 155.469 332.772 155.077 332.98 154.565C333.188 154.045 333.292 153.409 333.292 152.657C333.292 151.905 333.188 151.273 332.98 150.761C332.772 150.241 332.484 149.849 332.116 149.585C331.748 149.313 331.316 149.177 330.82 149.177C330.34 149.177 329.912 149.313 329.536 149.585C329.16 149.849 328.868 150.241 328.66 150.761C328.452 151.273 328.348 151.905 328.348 152.657C328.348 153.409 328.452 154.045 328.66 154.565C328.868 155.077 329.16 155.469 329.536 155.741C329.912 156.005 330.34 156.137 330.82 156.137Z" fill="white"/>
<path d="M271.698 98.3025V90.2625L272.082 90.6705H269.718V89.9025H272.562V98.3025H271.698ZM277.918 98.3745C277.27 98.3745 276.694 98.2065 276.19 97.8705C275.686 97.5265 275.29 97.0385 275.002 96.4065C274.714 95.7665 274.57 94.9985 274.57 94.1025C274.57 93.2065 274.714 92.4425 275.002 91.8105C275.29 91.1705 275.686 90.6825 276.19 90.3465C276.694 90.0025 277.27 89.8305 277.918 89.8305C278.566 89.8305 279.142 90.0025 279.646 90.3465C280.15 90.6825 280.546 91.1705 280.834 91.8105C281.13 92.4425 281.278 93.2065 281.278 94.1025C281.278 94.9985 281.13 95.7665 280.834 96.4065C280.546 97.0385 280.15 97.5265 279.646 97.8705C279.142 98.2065 278.566 98.3745 277.918 98.3745ZM277.918 97.5825C278.414 97.5825 278.846 97.4505 279.214 97.1865C279.582 96.9145 279.87 96.5225 280.078 96.0105C280.286 95.4905 280.39 94.8545 280.39 94.1025C280.39 93.3505 280.286 92.7185 280.078 92.2065C279.87 91.6865 279.582 91.2945 279.214 91.0305C278.846 90.7585 278.414 90.6225 277.918 90.6225C277.438 90.6225 277.01 90.7585 276.634 91.0305C276.258 91.2945 275.966 91.6865 275.758 92.2065C275.55 92.7185 275.446 93.3505 275.446 94.1025C275.446 94.8545 275.55 95.4905 275.758 96.0105C275.966 96.5225 276.258 96.9145 276.634 97.1865C277.01 97.4505 277.438 97.5825 277.918 97.5825ZM285.863 98.3745C285.215 98.3745 284.639 98.2065 284.135 97.8705C283.631 97.5265 283.235 97.0385 282.947 96.4065C282.659 95.7665 282.515 94.9985 282.515 94.1025C282.515 93.2065 282.659 92.4425 282.947 91.8105C283.235 91.1705 283.631 90.6825 284.135 90.3465C284.639 90.0025 285.215 89.8305 285.863 89.8305C286.511 89.8305 287.087 90.0025 287.591 90.3465C288.095 90.6825 288.491 91.1705 288.779 91.8105C289.075 92.4425 289.223 93.2065 289.223 94.1025C289.223 94.9985 289.075 95.7665 288.779 96.4065C288.491 97.0385 288.095 97.5265 287.591 97.8705C287.087 98.2065 286.511 98.3745 285.863 98.3745ZM285.863 97.5825C286.359 97.5825 286.791 97.4505 287.159 97.1865C287.527 96.9145 287.815 96.5225 288.023 96.0105C288.231 95.4905 288.335 94.8545 288.335 94.1025C288.335 93.3505 288.231 92.7185 288.023 92.2065C287.815 91.6865 287.527 91.2945 287.159 91.0305C286.791 90.7585 286.359 90.6225 285.863 90.6225C285.383 90.6225 284.955 90.7585 284.579 91.0305C284.203 91.2945 283.911 91.6865 283.703 92.2065C283.495 92.7185 283.391 93.3505 283.391 94.1025C283.391 94.8545 283.495 95.4905 283.703 96.0105C283.911 96.5225 284.203 96.9145 284.579 97.1865C284.955 97.4505 285.383 97.5825 285.863 97.5825Z" fill="white"/>
<path d="M210.737 75.072C210.065 75.072 209.485 74.976 208.997 74.784C208.517 74.592 208.145 74.316 207.881 73.956C207.625 73.588 207.497 73.156 207.497 72.66C207.497 72.18 207.621 71.772 207.869 71.436C208.125 71.092 208.493 70.828 208.973 70.644C209.461 70.46 210.049 70.368 210.737 70.368C211.417 70.368 212.001 70.46 212.489 70.644C212.977 70.828 213.349 71.092 213.605 71.436C213.869 71.772 214.001 72.18 214.001 72.66C214.001 73.156 213.869 73.588 213.605 73.956C213.341 74.316 212.965 74.592 212.477 74.784C211.989 74.976 211.409 75.072 210.737 75.072ZM210.737 74.34C211.481 74.34 212.061 74.188 212.477 73.884C212.901 73.58 213.113 73.168 213.113 72.648C213.113 72.128 212.901 71.72 212.477 71.424C212.061 71.12 211.481 70.968 210.737 70.968C209.993 70.968 209.413 71.12 208.997 71.424C208.581 71.72 208.373 72.128 208.373 72.648C208.373 73.168 208.581 73.58 208.997 73.884C209.413 74.188 209.993 74.34 210.737 74.34ZM210.737 70.86C210.113 70.86 209.581 70.776 209.141 70.608C208.709 70.44 208.377 70.2 208.145 69.888C207.913 69.568 207.797 69.188 207.797 68.748C207.797 68.284 207.917 67.888 208.157 67.56C208.405 67.224 208.749 66.968 209.189 66.792C209.629 66.616 210.145 66.528 210.737 66.528C211.329 66.528 211.845 66.616 212.285 66.792C212.733 66.968 213.081 67.224 213.329 67.56C213.577 67.888 213.701 68.284 213.701 68.748C213.701 69.188 213.585 69.568 213.353 69.888C213.121 70.2 212.781 70.44 212.333 70.608C211.893 70.776 211.361 70.86 210.737 70.86ZM210.737 70.284C211.393 70.284 211.905 70.148 212.273 69.876C212.641 69.604 212.825 69.24 212.825 68.784C212.825 68.304 212.633 67.932 212.249 67.668C211.873 67.396 211.369 67.26 210.737 67.26C210.105 67.26 209.601 67.396 209.225 67.668C208.849 67.932 208.661 68.3 208.661 68.772C208.661 69.236 208.841 69.604 209.201 69.876C209.569 70.148 210.081 70.284 210.737 70.284ZM218.546 75.072C217.898 75.072 217.322 74.904 216.818 74.568C216.314 74.224 215.918 73.736 215.63 73.104C215.342 72.464 215.198 71.696 215.198 70.8C215.198 69.904 215.342 69.14 215.63 68.508C215.918 67.868 216.314 67.38 216.818 67.044C217.322 66.7 217.898 66.528 218.546 66.528C219.194 66.528 219.77 66.7 220.274 67.044C220.778 67.38 221.174 67.868 221.462 68.508C221.758 69.14 221.906 69.904 221.906 70.8C221.906 71.696 221.758 72.464 221.462 73.104C221.174 73.736 220.778 74.224 220.274 74.568C219.77 74.904 219.194 75.072 218.546 75.072ZM218.546 74.28C219.042 74.28 219.474 74.148 219.842 73.884C220.21 73.612 220.498 73.22 220.706 72.708C220.914 72.188 221.018 71.552 221.018 70.8C221.018 70.048 220.914 69.416 220.706 68.904C220.498 68.384 220.21 67.992 219.842 67.728C219.474 67.456 219.042 67.32 218.546 67.32C218.066 67.32 217.638 67.456 217.262 67.728C216.886 67.992 216.594 68.384 216.386 68.904C216.178 69.416 216.074 70.048 216.074 70.8C216.074 71.552 216.178 72.188 216.386 72.708C216.594 73.22 216.886 73.612 217.262 73.884C217.638 74.148 218.066 74.28 218.546 74.28Z" fill="white"/>
<path d="M140.428 100.167C139.684 100.167 139.056 100.003 138.544 99.675C138.032 99.339 137.644 98.859 137.38 98.235C137.116 97.603 136.984 96.847 136.984 95.967C136.984 95.015 137.144 94.219 137.464 93.579C137.792 92.931 138.244 92.443 138.82 92.115C139.396 91.787 140.064 91.623 140.824 91.623C141.2 91.623 141.56 91.659 141.904 91.731C142.248 91.803 142.552 91.919 142.816 92.079L142.468 92.775C142.252 92.631 142.004 92.531 141.724 92.475C141.444 92.411 141.148 92.379 140.836 92.379C139.932 92.379 139.208 92.667 138.664 93.243C138.128 93.819 137.86 94.679 137.86 95.823C137.86 95.999 137.868 96.219 137.884 96.483C137.908 96.739 137.956 96.995 138.028 97.251L137.728 97.023C137.816 96.607 137.988 96.255 138.244 95.967C138.5 95.671 138.82 95.447 139.204 95.295C139.588 95.143 140.008 95.067 140.464 95.067C141.024 95.067 141.516 95.171 141.94 95.379C142.364 95.587 142.696 95.879 142.936 96.255C143.176 96.631 143.296 97.075 143.296 97.587C143.296 98.107 143.172 98.563 142.924 98.955C142.676 99.339 142.332 99.639 141.892 99.855C141.46 100.063 140.972 100.167 140.428 100.167ZM140.392 99.435C140.792 99.435 141.144 99.363 141.448 99.219C141.76 99.067 142.004 98.855 142.18 98.583C142.356 98.303 142.444 97.979 142.444 97.611C142.444 97.059 142.252 96.619 141.868 96.291C141.492 95.963 140.98 95.799 140.332 95.799C139.9 95.799 139.524 95.879 139.204 96.039C138.884 96.199 138.632 96.419 138.448 96.699C138.264 96.971 138.172 97.283 138.172 97.635C138.172 97.939 138.256 98.231 138.424 98.511C138.592 98.783 138.84 99.007 139.168 99.183C139.504 99.351 139.912 99.435 140.392 99.435ZM147.645 100.167C146.997 100.167 146.421 99.999 145.917 99.663C145.413 99.319 145.017 98.831 144.729 98.199C144.441 97.559 144.297 96.791 144.297 95.895C144.297 94.999 144.441 94.235 144.729 93.603C145.017 92.963 145.413 92.475 145.917 92.139C146.421 91.795 146.997 91.623 147.645 91.623C148.293 91.623 148.869 91.795 149.373 92.139C149.877 92.475 150.273 92.963 150.561 93.603C150.857 94.235 151.005 94.999 151.005 95.895C151.005 96.791 150.857 97.559 150.561 98.199C150.273 98.831 149.877 99.319 149.373 99.663C148.869 99.999 148.293 100.167 147.645 100.167ZM147.645 99.375C148.141 99.375 148.573 99.243 148.941 98.979C149.309 98.707 149.597 98.315 149.805 97.803C150.013 97.283 150.117 96.647 150.117 95.895C150.117 95.143 150.013 94.511 149.805 93.999C149.597 93.479 149.309 93.087 148.941 92.823C148.573 92.551 148.141 92.415 147.645 92.415C147.165 92.415 146.737 92.551 146.361 92.823C145.985 93.087 145.693 93.479 145.485 93.999C145.277 94.511 145.173 95.143 145.173 95.895C145.173 96.647 145.277 97.283 145.485 97.803C145.693 98.315 145.985 98.707 146.361 98.979C146.737 99.243 147.165 99.375 147.645 99.375Z" fill="white"/>
<path d="M94.7221 154.649V154.025L99.1741 148.457H100.134L95.7181 154.025L95.2501 153.881H102.006V154.649H94.7221ZM99.4621 156.857V154.649L99.4861 153.881V151.937H100.326V156.857H99.4621ZM106.148 156.929C105.5 156.929 104.924 156.761 104.42 156.425C103.916 156.081 103.52 155.593 103.232 154.961C102.944 154.321 102.8 153.553 102.8 152.657C102.8 151.761 102.944 150.997 103.232 150.365C103.52 149.725 103.916 149.237 104.42 148.901C104.924 148.557 105.5 148.385 106.148 148.385C106.796 148.385 107.372 148.557 107.876 148.901C108.38 149.237 108.776 149.725 109.064 150.365C109.36 150.997 109.508 151.761 109.508 152.657C109.508 153.553 109.36 154.321 109.064 154.961C108.776 155.593 108.38 156.081 107.876 156.425C107.372 156.761 106.796 156.929 106.148 156.929ZM106.148 156.137C106.644 156.137 107.076 156.005 107.444 155.741C107.812 155.469 108.1 155.077 108.308 154.565C108.516 154.045 108.62 153.409 108.62 152.657C108.62 151.905 108.516 151.273 108.308 150.761C108.1 150.241 107.812 149.849 107.444 149.585C107.076 149.313 106.644 149.177 106.148 149.177C105.668 149.177 105.24 149.313 104.864 149.585C104.488 149.849 104.196 150.241 103.988 150.761C103.78 151.273 103.676 151.905 103.676 152.657C103.676 153.409 103.78 154.045 103.988 154.565C104.196 155.077 104.488 155.469 104.864 155.741C105.24 156.005 105.668 156.137 106.148 156.137Z" fill="white"/>
<path d="M87.2604 232.143V231.531L90.7524 228.111C91.0724 227.799 91.3124 227.527 91.4724 227.295C91.6324 227.055 91.7404 226.831 91.7964 226.623C91.8524 226.415 91.8804 226.219 91.8804 226.035C91.8804 225.547 91.7124 225.163 91.3764 224.883C91.0484 224.603 90.5604 224.463 89.9124 224.463C89.4164 224.463 88.9764 224.539 88.5924 224.691C88.2164 224.843 87.8924 225.079 87.6204 225.399L87.0084 224.871C87.3364 224.487 87.7564 224.191 88.2684 223.983C88.7804 223.775 89.3524 223.671 89.9844 223.671C90.5524 223.671 91.0444 223.763 91.4604 223.947C91.8764 224.123 92.1964 224.383 92.4204 224.727C92.6524 225.071 92.7684 225.475 92.7684 225.939C92.7684 226.211 92.7284 226.479 92.6484 226.743C92.5764 227.007 92.4404 227.287 92.2404 227.583C92.0484 227.871 91.7644 228.199 91.3884 228.567L88.1844 231.711L87.9444 231.375H93.1524V232.143H87.2604ZM97.5612 232.215C96.9132 232.215 96.3372 232.047 95.8332 231.711C95.3292 231.367 94.9332 230.879 94.6452 230.247C94.3572 229.607 94.2132 228.839 94.2132 227.943C94.2132 227.047 94.3572 226.283 94.6452 225.651C94.9332 225.011 95.3292 224.523 95.8332 224.187C96.3372 223.843 96.9132 223.671 97.5612 223.671C98.2092 223.671 98.7852 223.843 99.2892 224.187C99.7932 224.523 100.189 225.011 100.477 225.651C100.773 226.283 100.921 227.047 100.921 227.943C100.921 228.839 100.773 229.607 100.477 230.247C100.189 230.879 99.7932 231.367 99.2892 231.711C98.7852 232.047 98.2092 232.215 97.5612 232.215ZM97.5612 231.423C98.0572 231.423 98.4892 231.291 98.8572 231.027C99.2252 230.755 99.5132 230.363 99.7212 229.851C99.9292 229.331 100.033 228.695 100.033 227.943C100.033 227.191 99.9292 226.559 99.7212 226.047C99.5132 225.527 99.2252 225.135 98.8572 224.871C98.4892 224.599 98.0572 224.463 97.5612 224.463C97.0812 224.463 96.6532 224.599 96.2772 224.871C95.9012 225.135 95.6092 225.527 95.4012 226.047C95.1932 226.559 95.0892 227.191 95.0892 227.943C95.0892 228.695 95.1932 229.331 95.4012 229.851C95.6092 230.363 95.9012 230.755 96.2772 231.027C96.6532 231.291 97.0812 231.423 97.5612 231.423Z" fill="white"/>
<path d="M121.08 298.537C120.432 298.537 119.856 298.369 119.352 298.033C118.848 297.689 118.452 297.201 118.164 296.569C117.876 295.929 117.732 295.161 117.732 294.265C117.732 293.369 117.876 292.605 118.164 291.973C118.452 291.333 118.848 290.845 119.352 290.509C119.856 290.165 120.432 289.993 121.08 289.993C121.728 289.993 122.304 290.165 122.808 290.509C123.312 290.845 123.708 291.333 123.996 291.973C124.292 292.605 124.44 293.369 124.44 294.265C124.44 295.161 124.292 295.929 123.996 296.569C123.708 297.201 123.312 297.689 122.808 298.033C122.304 298.369 121.728 298.537 121.08 298.537ZM121.08 297.745C121.576 297.745 122.008 297.613 122.376 297.349C122.744 297.077 123.032 296.685 123.24 296.173C123.448 295.653 123.552 295.017 123.552 294.265C123.552 293.513 123.448 292.881 123.24 292.369C123.032 291.849 122.744 291.457 122.376 291.193C122.008 290.921 121.576 290.785 121.08 290.785C120.6 290.785 120.172 290.921 119.796 291.193C119.42 291.457 119.128 291.849 118.92 292.369C118.712 292.881 118.608 293.513 118.608 294.265C118.608 295.017 118.712 295.653 118.92 296.173C119.128 296.685 119.42 297.077 119.796 297.349C120.172 297.613 120.6 297.745 121.08 297.745Z" fill="white"/>
<path d="M112.184 313.11C110.239 315.256 106.917 315.424 104.839 313.408C83.1296 292.34 67.8923 265.445 60.9961 235.9C53.702 204.651 56.0851 171.919 67.8284 142.058C79.5716 112.198 100.119 86.6234 126.736 68.7363C153.354 50.8493 184.782 41.4975 216.839 41.9246C248.896 42.3517 280.063 52.5376 306.196 71.1274C332.329 89.7173 352.188 115.83 363.134 145.993C374.079 176.156 375.59 208.939 367.468 239.983C359.789 269.333 343.843 295.812 321.582 316.293C319.45 318.255 316.133 318 314.246 315.803C312.359 313.606 312.617 310.301 314.744 308.335C335.394 289.246 350.189 264.614 357.329 237.325C364.912 208.342 363.501 177.735 353.282 149.575C343.064 121.414 324.523 97.0347 300.125 79.679C275.727 62.3232 246.628 52.8136 216.699 52.4148C186.77 52.016 157.429 60.747 132.578 77.4466C107.727 94.1462 88.5446 118.023 77.5809 145.901C66.6172 173.78 64.3924 204.338 71.2023 233.513C77.6144 260.984 91.7508 286.002 111.888 305.636C113.96 307.656 114.128 310.965 112.184 313.11Z" fill="#D9D9D9" fill-opacity="0.4"/>
</g>
<defs>
<clipPath id="clip0_95_328">
<rect width="429" height="393" fill="white"/>
</clipPath>
</defs>
</svg>
