<svg width="13" height="23" viewBox="0 0 13 23" fill="none" xmlns="http://www.w3.org/2000/svg">
<path d="M12.2263 9.56274L8.10559 8.47884L10.2837 1.20797C10.4154 0.764812 10.1924 0.2981 9.75199 0.0964697C9.31067 -0.105156 8.78011 0.017518 8.49004 0.387451L0.197228 10.9558C0.000458285 11.2077 -0.0534342 11.5329 0.0552546 11.8287C0.162813 12.1244 0.419359 12.3508 0.739965 12.4353L4.86063 13.5192L2.43621 21.6116C2.30238 22.0586 2.53153 22.5291 2.97784 22.728C3.11891 22.7897 3.267 22.8192 3.41305 22.8192C3.73459 22.8192 4.04796 22.6758 4.24384 22.4151L12.7824 11.0253C12.9722 10.7723 13.0177 10.4501 12.9083 10.1591C12.7987 9.86815 12.544 9.64638 12.2263 9.56274Z" fill="white"/>
</svg>
